<svg xmlns="http://www.w3.org/2000/svg" width="1200" height="630" viewBox="0 0 1200 630">
  <defs>
    <linearGradient id="bg" x1="0" y1="0" x2="0.7" y2="1">
      <stop offset="0" stop-color="#2F5D3A"/>
      <stop offset="1" stop-color="#1E3E26"/>
    </linearGradient>
  </defs>
  <rect width="1200" height="630" fill="url(#bg)"/>
  <rect x="0" y="606" width="1200" height="24" fill="#B4562C"/>
  <g opacity="0.12" fill="none" stroke="#EFE7D8" stroke-width="2">
    <circle cx="1040" cy="120" r="210"/>
    <circle cx="1040" cy="120" r="140"/>
  </g>
  <!-- logo mark -->
  <g transform="translate(90,150)">
    <rect x="0" y="0" width="92" height="92" rx="22" fill="#25492D" stroke="#4C8759" stroke-width="2"/>
    <path d="M46 74V41" stroke="#EFE7D8" stroke-width="4.5" stroke-linecap="round"/>
    <path d="M46 52c-2.3-11.5-11.5-16.3-23-16.3 0 11.5 7.7 18.2 23 18.2Z" fill="#EFE7D8"/>
    <path d="M46 43c2.1-10.6 10.2-14.4 20.2-14.4 0 10.6-6.3 16.4-20.2 16.4Z" fill="#B4562C"/>
  </g>
  <text x="212" y="196" font-family="Georgia, 'Times New Roman', serif" font-size="21" letter-spacing="4" fill="#D8C9AE" font-weight="700">GROWING GREEN, LIVING BEAUTY</text>
  <text x="88" y="372" font-family="Georgia, 'Times New Roman', serif" font-size="88" font-weight="700" fill="#FFFFFF">Excel Lawn Care</text>
  <text x="90" y="482" font-family="Arial, sans-serif" font-size="31" fill="#E7EEE4">Lawn care, landscape design &amp; build · Central Texas</text>
  <text x="90" y="540" font-family="Arial, sans-serif" font-size="27" font-weight="700" fill="#D8C9AE">Family-owned in Buda since 1998 &nbsp;·&nbsp; 5.0★ &nbsp;·&nbsp; BBB A+</text>
</svg>
